<svg xmlns="http://www.w3.org/2000/svg" xmlns:xlink="http://www.w3.org/1999/xlink" viewBox="0 0 1080 1080"><defs><style>.cls-1{fill:url(#Silver);}.cls-2{fill:url(#radial-gradient);}.cls-3{fill:url(#radial-gradient-2);}</style><linearGradient id="Silver" x1="-553.18" y1="-553.18" x2="1744.52" y2="1744.52" gradientUnits="userSpaceOnUse"><stop offset="0" stop-color="#e5e2df"/><stop offset="0" stop-color="#ded9d6"/><stop offset="0.06" stop-color="#cfcac9"/><stop offset="0.18" stop-color="#a8a4a7"/><stop offset="0.26" stop-color="#8b878d"/><stop offset="0.52" stop-color="#f3f4f4"/><stop offset="0.58" stop-color="#e5e5e6"/><stop offset="0.7" stop-color="#c0bec0"/><stop offset="0.86" stop-color="#858085"/><stop offset="0.88" stop-color="#807b80"/><stop offset="1" stop-color="#d1d3d4"/><stop offset="1" stop-color="#a7a9ac"/></linearGradient><radialGradient id="radial-gradient" cx="266.16" cy="371.91" r="635.83" gradientUnits="userSpaceOnUse"><stop offset="0" stop-color="#3f3f3f"/><stop offset="0.21" stop-color="#373737"/><stop offset="0.52" stop-color="#222"/><stop offset="0.54" stop-color="#202020"/><stop offset="1" stop-color="#010101"/></radialGradient><radialGradient id="radial-gradient-2" cx="266.16" cy="371.91" r="635.83" gradientTransform="translate(853.07 1192) rotate(180)" xlink:href="#radial-gradient"/></defs><g id="Layer_2" data-name="Layer 2"><g id="Layer_1-2" data-name="Layer 1"><rect class="cls-1" width="1080" height="1080" rx="540"/><path class="cls-2" d="M397,311.29a41.11,41.11,0,1,1,0,58.14A41.11,41.11,0,0,1,397,311.29Z"/><path class="cls-3" d="M467.6,411.25h1.09a0,0,0,0,1,0,0V697.53a83.22,83.22,0,0,1-83.22,83.22h-1.09a0,0,0,0,1,0,0V494.47A83.22,83.22,0,0,1,467.6,411.25Z" transform="translate(853.07 1192) rotate(-180)"/><path class="cls-2" d="M679.75,299.25a83.33,83.33,0,0,1,0,117.84l-94.36,94.36c4.68-.84,11.89-2.09,20.73-3.43,42.22-6.37,52.64-4.26,59.13-2.2,10.78,3.42,18.68,8.95,21.7,12a83.33,83.33,0,0,1,0,117.85L541.83,780.75a83.31,83.31,0,0,1,0-117.84l95.57-95.57c-9.39,6.36-36.48,22-67.44,14.31a82,82,0,0,1-35.33-137.28Z"/></g></g></svg>